<svg width="1920" height="1080" viewBox="0 0 1920 1080" xmlns="http://www.w3.org/2000/svg"><rect width="1920" height="1080" fill="#e6e6e6"/><path d="M 0,1080 C 0,1080 0,216 0,216 C 64.49117280866145,180.34369325832026 128.9823456173229,144.68738651664052 174,157 C 219.0176543826771,169.31261348335948 244.56179033936985,229.59414719175822 250,249 C 255.43820966063015,268.4058528082418 240.77049302519782,246.9360247163265 270,241 C 299.2295069748022,235.0639752836735 372.3562375598391,244.6617539429357 470,235 C 567.6437624401609,225.3382460570643 689.8045567354457,196.41695951193077 754,204 C 818.1954432645543,211.58304048806923 824.4255354983785,255.6704080093413 871,251 C 917.5744645016215,246.3295919906587 1004.4933012710408,192.9014084507042 1034,204 C 1063.5066987289592,215.0985915492958 1035.601259417458,290.72395818784184 1097,287 C 1158.398740582542,283.27604181215816 1309.1016610591266,200.2027587979284 1404,199 C 1498.8983389408734,197.7972412020716 1537.992096346035,278.4650066204446 1550,282 C 1562.007903653965,285.5349933795554 1546.9299535567332,211.9372147202932 1525,171 C 1503.0700464432668,130.0627852797068 1474.2880894270334,121.78613449838258 1620,157 C 1765.7119105729666,192.21386550161742 2085.9176887351337,270.9182472861764 2165,288 C 2244.0823112648663,305.0817527138236 2082.0411556324334,260.5408763569118 1920,216 C 1920,216 1920,1080 1920,1080 Z" fill="#5d1084" opacity="0.12"/><path d="M 0,1080 C 0,1080 0,432 0,432 C 39.32333912142469,483.16200644234596 78.64667824284938,534.3240128846919 80,511 C 81.35332175715062,487.67598711530803 44.73662615002715,389.8659549035781 123,369 C 201.26337384997285,348.1340450964219 394.40681715704204,404.21216750099575 522,435 C 649.593182842958,465.78783249900425 711.636105221805,471.285375092439 718,457 C 724.363894778195,442.714624907561 675.0487619557381,408.64633212924855 707,419 C 738.9512380442619,429.35366787075145 852.1688469552428,484.12929639056665 961,478 C 1069.8311530447572,471.87070360943335 1174.275850223291,404.8364823084851 1254,375 C 1333.724149776709,345.1635176915149 1388.7277521515934,352.52477437549317 1329,392 C 1269.2722478484066,431.47522562450683 1094.8131411703355,503.0644201895422 1087,505 C 1079.1868588296645,506.9355798104578 1238.0196831670648,439.21754486633813 1309,416 C 1379.9803168329352,392.78245513366187 1363.1081261614054,414.06540034510516 1474,436 C 1584.8918738385946,457.93459965489484 1823.5478121873136,480.52085375324106 1912,483 C 2000.4521878126864,485.47914624675894 1938.700625089339,467.8511846419311 1915,456 C 1891.299374910661,444.1488153580689 1905.6496874553304,438.07440767903444 1920,432 C 1920,432 1920,1080 1920,1080 Z" fill="#5d1084" opacity="0.24"/><path d="M 0,1080 C 0,1080 0,648 0,648 C -25.653707823707165,668.272748486741 -51.30741564741433,688.5454969734818 7,699 C 65.30741564741433,709.4545030265182 207.57595476595014,710.0907605928137 284,705 C 360.42404523404986,699.9092394071863 371.00359658361356,689.0914606552639 466,691 C 560.9964034163864,692.9085393447361 740.4096588995959,707.5433967861309 785,721 C 829.5903411004041,734.4566032138691 739.357767818003,746.7349522002128 752,721 C 764.642232181997,695.2650477997872 880.1592698283919,631.5167944130179 912,630 C 943.8407301716081,628.4832055869821 892.0051528684301,689.1978701477157 935,684 C 977.9948471315699,678.8021298522843 1115.820118697888,607.6917249961198 1248,585 C 1380.179881302112,562.3082750038802 1506.7143723400184,588.035229867805 1515,606 C 1523.2856276599816,623.964770132195 1413.322391942039,634.16735553266 1361,631 C 1308.677608057961,627.83264446734 1313.9960598918246,611.295348001555 1452,611 C 1590.0039401081754,610.704651998445 1860.6933684906626,626.6512524611198 1970,619 C 2079.3066315093374,611.3487475388802 2027.230466145525,580.0996421539658 1992,581 C 1956.769533854475,581.9003578460342 1938.3847669272375,614.9501789230171 1920,648 C 1920,648 1920,1080 1920,1080 Z" fill="#5d1084" opacity="0.36"/><path d="M 0,1080 C 0,1080 0,864 0,864 C 114.88223450668116,841.1539480592497 229.76446901336232,818.3078961184995 270,836 C 310.2355309866377,853.6921038815005 275.824358453232,911.9223635852518 283,936 C 290.175641546768,960.0776364147482 338.93809717370993,950.0026495404934 406,921 C 473.06190282629007,891.9973504595066 558.4232528519284,844.0670382527749 605,818 C 651.5767471480716,791.9329617472251 659.3688914185766,787.7291974484069 638,796 C 616.6311085814234,804.2708025515931 566.1011814737652,825.0161719535973 694,828 C 821.8988185262348,830.9838280464027 1128.2263826863623,816.2061147372036 1145,847 C 1161.7736173136377,877.7938852627964 888.9932877807863,954.1593690975878 933,936 C 977.0067122192137,917.8406309024122 1337.8004661904927,805.1564088724449 1416,783 C 1494.1995338095073,760.8435911275551 1289.8048474572436,829.2149954126321 1251,869 C 1212.1951525427564,908.7850045873679 1338.9801439805324,919.9836094770266 1416,911 C 1493.0198560194676,902.0163905229734 1520.2745766206258,872.850566679262 1662,858 C 1803.7254233793742,843.149433320738 2059.921549536964,842.6141238059253 2122,846 C 2184.078450463036,849.3858761940747 2052.039225231518,856.6929380970373 1920,864 C 1920,864 1920,1080 1920,1080 Z" fill="#5d1084" opacity="0.48"/></svg>